<?xml version="1.0" standalone="no"?>
<!DOCTYPE svg PUBLIC "-//W3C//DTD SVG 20010904//EN"
 "http://www.w3.org/TR/2001/REC-SVG-20010904/DTD/svg10.dtd">
<svg version="1.0" xmlns="http://www.w3.org/2000/svg"
 width="107.000000pt" height="107.000000pt" viewBox="0 0 107.000000 107.000000"
 preserveAspectRatio="xMidYMid meet">
<metadata>
Created by potrace 1.14, written by Peter Selinger 2001-2017
</metadata>
<g transform="translate(0.000000,107.000000) scale(0.100000,-0.100000)"
fill="#000000" stroke="none">
<path d="M763 1044 c-19 -19 -23 -31 -18 -53 6 -29 5 -29 -79 -56 -46 -15 -99
-37 -117 -49 l-33 -23 -33 20 c-22 13 -31 23 -25 31 30 38 12 81 -37 91 -49 9
-82 -69 -41 -98 18 -13 16 -17 -45 -80 -72 -75 -91 -106 -98 -157 -5 -47 10
-89 45 -126 16 -17 23 -31 16 -31 -29 -1 -71 -13 -83 -23 -11 -9 -10 -18 8
-47 15 -26 18 -38 9 -41 -7 -2 -10 -14 -7 -28 3 -13 7 -35 10 -48 4 -20 -4
-30 -45 -60 -28 -20 -50 -42 -50 -49 0 -15 53 -57 71 -57 7 0 20 7 29 15 16
15 18 12 29 -31 23 -89 118 -154 202 -138 111 21 170 111 149 225 -5 27 -4 42
4 44 34 11 109 10 136 -2 18 -7 64 -13 103 -13 67 0 69 1 54 18 -10 10 -17 29
-17 41 0 27 -66 60 -121 61 -43 0 -104 24 -112 43 -4 10 9 13 55 14 32 0 62 3
64 6 7 7 12 35 13 77 1 31 6 37 41 53 68 31 102 117 77 192 -5 16 -32 63 -59
103 l-49 73 25 24 c16 15 24 31 21 45 -10 54 -56 70 -92 34z"/>
</g>
</svg>
